<?xml version="1.0" encoding="utf-8"?>
<svg width="800px" height="800px" viewBox="0 0 1024 1024" xmlns="http://www.w3.org/2000/svg" xmlns:bx="https://boxy-svg.com">
  <defs>
    <linearGradient id="gradient-1" bx:pinned="true"/>
  </defs>
  <g style="" transform="matrix(0.786951, 0, 0, 0.786951, 106.440598, -97.56736)">
    <path d="M 144.289 703.392 L 111.393 703.392 C 93.72 703.392 79.393 689.065 79.393 671.392 L 79.393 191.392 C 79.393 173.719 93.72 159.392 111.393 159.392 L 687.393 159.392 C 705.066 159.392 719.393 173.719 719.393 191.392 L 719.393 287.392 L 883.937 287.392 C 899.728 287.398 913.153 298.921 915.553 314.528 L 969.699 666.528 C 972.679 685.907 957.689 703.385 938.081 703.392 L 846.561 703.392 C 858.686 813.578 746.984 895.57 645.498 850.978 C 587.909 825.673 553.409 765.917 560.289 703.392 L 430.497 703.392 C 442.622 813.578 330.92 895.57 229.434 850.978 C 171.845 825.673 137.345 765.917 144.225 703.392 L 144.289 703.392 Z M 167.649 639.392 C 224.589 553.9 350.197 553.9 407.137 639.392 L 583.713 639.392 C 600.801 613.792 625.953 594.016 655.457 583.584 L 655.457 223.392 L 143.393 223.392 L 143.393 639.392 L 167.649 639.392 Z M 823.137 639.392 L 900.769 639.392 L 881.121 511.392 L 719.393 511.392 L 719.393 576.288 C 761.586 581.001 799.549 604.092 823.137 639.392 Z M 871.265 447.392 L 856.545 351.392 L 719.393 351.392 L 719.393 447.392 L 871.265 447.392 Z M 703.393 799.392 C 764.977 799.392 803.467 732.725 772.675 679.392 C 758.385 654.64 731.974 639.392 703.393 639.392 C 641.809 639.392 603.319 706.059 634.111 759.392 C 648.402 784.144 674.812 799.392 703.393 799.392 Z M 287.393 799.392 C 348.977 799.392 387.467 732.725 356.675 679.392 C 342.385 654.64 315.974 639.392 287.393 639.392 C 225.809 639.392 187.319 706.059 218.111 759.392 C 232.402 784.144 258.812 799.392 287.393 799.392 Z" style="fill: rgb(57, 147, 223);"/>
  </g>
  <path style="stroke-width: 1.28; fill-rule: nonzero; fill: rgb(57, 147, 223);" d="M 148.921 505.4 L 196.325 505.4 L 145.076 586.756 L 768.038 587.669 L 819.416 506.826 L 860.569 506.306 L 968.905 559.958 L 860.044 617.252 L 86.538 616.731 L 148.921 505.4 Z"/>
</svg>